<svg width="139" height="73" viewBox="0 0 139 73" fill="none" xmlns="http://www.w3.org/2000/svg">
<path d="M47.4596 39.561V31.7143H42.1637L44.1485 28.0727H60.426L58.4413 31.7143H51.9125V39.561H47.4596Z" fill="#2121F1"/>
<path d="M60.3817 28.0727H65.6776L71.807 39.561H66.7914L65.89 37.5958H60.1692L59.2679 39.561H54.2522L60.3817 28.0727ZM61.4605 34.7901H64.5964L63.032 31.3973L61.4605 34.7901Z" fill="#2121F1"/>
<path d="M82.1932 28.0633H86.6485V34.2266C86.6485 38.5608 83.1623 39.8263 78.8448 39.8263C74.553 39.8169 71.0318 38.5702 71.0505 34.2266V32.8249H75.5057V33.9448C75.48 35.8349 77.0282 36.1589 78.8471 36.1847C80.6755 36.1589 82.2213 35.8349 82.1956 33.9448V28.0633H82.1932Z" fill="#2121F1"/>
<path d="M93.1095 28.0563V39.5446H88.6543V28.0563H93.1095Z" fill="#2121F1"/>
<path d="M106.48 28.0633C108.834 28.0375 110.832 30.0285 110.797 32.4046C110.797 33.2686 110.569 34.0552 110.109 34.7548C109.658 35.4475 109.055 35.9781 108.306 36.3279L110.797 39.5493H106.055L103.904 36.7459H99.9255V39.5493H95.4702V28.0609H106.48V28.0633ZM99.9278 31.4232V33.3813H105.359C105.632 33.3813 105.861 33.2874 106.048 33.0996C106.244 32.9023 106.338 32.6722 106.338 32.4069C106.338 31.8599 105.903 31.4232 105.359 31.4232H99.9278Z" fill="#2121F1"/>
<path d="M116.63 28.0563V39.5446H112.175V28.0563H116.63Z" fill="#2121F1"/>
<path d="M31.119 42.5734C31.7285 42.5734 32.2282 42.071 32.2282 41.4605V33.9941C32.2282 33.9847 32.2282 33.973 32.2282 33.966V33.9636C32.2282 33.9566 32.2282 33.9448 32.2282 33.9354C32.2258 33.9284 32.2258 33.9167 32.2258 33.9073C32.2258 33.9002 32.2235 33.8885 32.2235 33.8791C32.2212 33.872 32.2212 33.8603 32.2212 33.8509C32.2188 33.8439 32.2188 33.8321 32.2165 33.8227C32.2142 33.8157 32.2142 33.804 32.2118 33.7969C32.2118 33.7875 32.2095 33.7758 32.2072 33.7687C32.2048 33.7593 32.2048 33.7523 32.2025 33.7406C32.2001 33.7335 32.1978 33.7218 32.1955 33.7147C32.0741 33.2334 31.6374 32.8765 31.1237 32.8765H23.6142C23.0048 32.8765 22.5074 33.379 22.5074 33.9918C22.5074 34.6022 23.0071 35.1047 23.6142 35.1047H28.4244L25.0479 38.4998C24.616 38.9341 24.616 39.6409 25.0479 40.0752C25.4799 40.5096 26.1828 40.5096 26.6171 40.0752L30.0146 36.6567V41.4581C30.0099 42.0709 30.5096 42.5734 31.119 42.5734Z" fill="#2121F1"/>
<path d="M24.9872 27.8825C24.5552 28.3169 24.5552 29.0236 24.9872 29.4603L27.2545 31.7401C27.6865 32.1722 28.3894 32.1722 28.8214 31.7401C29.2557 31.3058 29.2557 30.5967 28.8214 30.1623L26.554 27.8849C26.1221 27.4482 25.4169 27.4482 24.9872 27.8825Z" fill="#6EEDC8"/>
<path d="M31.0396 25.328C30.4302 25.328 29.9305 25.8305 29.9305 26.4409V29.6646C29.9305 30.2798 30.4302 30.7775 31.0396 30.7775C31.6514 30.7775 32.1511 30.2774 32.1511 29.6646V26.4409C32.1488 25.8305 31.6491 25.328 31.0396 25.328Z" fill="#6EEDC8"/>
<path d="M37.1154 27.8262C36.6834 27.3918 35.9759 27.3918 35.5463 27.8262L33.2789 30.1036C32.847 30.538 32.847 31.2447 33.2789 31.6791C33.7109 32.1158 34.4184 32.1158 34.8481 31.6791L37.1154 29.4016C37.5474 28.9673 37.5474 28.2605 37.1154 27.8262Z" fill="#6EEDC8"/>
<path d="M39.6559 33.9096C39.6559 33.2992 39.1562 32.7967 38.5468 32.7967H35.3408C34.729 32.7967 34.234 33.2992 34.234 33.9096C34.234 34.5248 34.7313 35.0272 35.3408 35.0272H38.5468C39.1562 35.0272 39.6559 34.5248 39.6559 33.9096Z" fill="#6EEDC8"/>
<path d="M37.1714 40.0189C37.6034 39.5869 37.6034 38.8754 37.1714 38.4411L34.9041 36.1636C34.4721 35.7316 33.7693 35.7316 33.335 36.1636C32.903 36.598 32.903 37.307 33.335 37.7414L35.6046 40.0189C36.0366 40.4509 36.7395 40.4509 37.1714 40.0189Z" fill="#6EEDC8"/>
</svg>
