<svg width="18" height="18" viewBox="0 0 18 18" fill="none" xmlns="http://www.w3.org/2000/svg">
<path d="M9.11906 17.5734C9.7285 17.5734 10.2282 17.071 10.2282 16.4605V8.99413C10.2282 8.98474 10.2282 8.973 10.2282 8.96596V8.96361C10.2282 8.95656 10.2282 8.94482 10.2282 8.93543C10.2259 8.92839 10.2259 8.91665 10.2259 8.90726C10.2259 8.90022 10.2235 8.88847 10.2235 8.87908C10.2212 8.87204 10.2212 8.8603 10.2212 8.85091C10.2189 8.84386 10.2189 8.83213 10.2165 8.82273C10.2142 8.81569 10.2142 8.80395 10.2119 8.79691C10.2119 8.78752 10.2095 8.77577 10.2072 8.76873C10.2048 8.75934 10.2048 8.7523 10.2025 8.74056C10.2002 8.73351 10.1978 8.72177 10.1955 8.71473C10.0741 8.23341 9.63743 7.87653 9.12373 7.87653H1.61425C1.00481 7.87653 0.507446 8.37898 0.507446 8.99178C0.507446 9.60224 1.00714 10.1047 1.61425 10.1047H6.42443L3.04796 13.4998C2.61598 13.9341 2.61598 14.6409 3.04796 15.0752C3.47995 15.5096 4.18279 15.5096 4.61711 15.0752L8.01458 11.6567V16.4581C8.00991 17.0709 8.50961 17.5734 9.11906 17.5734Z" fill="#2121F1"/>
<path d="M2.98719 2.88253C2.55521 3.3169 2.55521 4.02362 2.98719 4.46033L5.25451 6.74015C5.68649 7.17217 6.38934 7.17217 6.82132 6.74015C7.25564 6.30579 7.25564 5.59672 6.82132 5.16235L4.554 2.88488C4.12202 2.44817 3.41684 2.44817 2.98719 2.88253Z" fill="#6EEDC8"/>
<path d="M9.0396 0.328003C8.43016 0.328003 7.93046 0.830458 7.93046 1.44091V4.6646C7.93046 5.27975 8.43016 5.77751 9.0396 5.77751C9.65138 5.77751 10.1511 5.2774 10.1511 4.6646V1.44091C10.1487 0.830458 9.64905 0.328003 9.0396 0.328003Z" fill="#6EEDC8"/>
<path d="M15.1154 2.82618C14.6834 2.39181 13.9759 2.39181 13.5462 2.82618L11.2789 5.10365C10.8469 5.53802 10.8469 6.24474 11.2789 6.6791C11.7109 7.11581 12.4184 7.11581 12.848 6.6791L15.1154 4.40163C15.5473 3.96726 15.5473 3.26054 15.1154 2.82618Z" fill="#6EEDC8"/>
<path d="M17.6559 8.90962C17.6559 8.29916 17.1562 7.79671 16.5467 7.79671H13.3407C12.729 7.79671 12.2339 8.29916 12.2339 8.90962C12.2339 9.52477 12.7313 10.0272 13.3407 10.0272H16.5467C17.1562 10.0272 17.6559 9.52477 17.6559 8.90962Z" fill="#6EEDC8"/>
<path d="M15.1714 15.0189C15.6034 14.5869 15.6034 13.8755 15.1714 13.4411L12.9041 11.1636C12.4721 10.7316 11.7693 10.7316 11.3349 11.1636C10.903 11.598 10.903 12.307 11.3349 12.7414L13.6046 15.0189C14.0366 15.4509 14.7394 15.4509 15.1714 15.0189Z" fill="#6EEDC8"/>
</svg>
